<?xml version="1.0" encoding="UTF-8" standalone="no"?>
<svg
   width="16"
   height="16"
   version="1.1"
   id="svg155"
   sodipodi:docname="com.thinqrlab.pyMushaf-symbolic.svg"
   inkscape:version="1.2 (dc2aedaf03, 2022-05-15)"
   xmlns:inkscape="http://www.inkscape.org/namespaces/inkscape"
   xmlns:sodipodi="http://sodipodi.sourceforge.net/DTD/sodipodi-0.dtd"
   xmlns="http://www.w3.org/2000/svg"
   xmlns:svg="http://www.w3.org/2000/svg">
  <defs
     id="defs159" />
  <sodipodi:namedview
     id="namedview157"
     pagecolor="#ffffff"
     bordercolor="#111111"
     borderopacity="1"
     inkscape:showpageshadow="0"
     inkscape:pageopacity="0"
     inkscape:pagecheckerboard="1"
     inkscape:deskcolor="#d1d1d1"
     showgrid="false"
     inkscape:zoom="5.0977648"
     inkscape:cx="55.514527"
     inkscape:cy="-10.789042"
     inkscape:window-width="1920"
     inkscape:window-height="1043"
     inkscape:window-x="0"
     inkscape:window-y="0"
     inkscape:window-maximized="1"
     inkscape:current-layer="svg155" />
  <path
     id="path1141"
     style="opacity:1;fill:#2e3436;fill-opacity:1;stroke:none;stroke-width:1.182;stroke-linecap:round;stroke-linejoin:round;stroke-dasharray:none;stroke-opacity:1"
     d="M 2.828125 0 C 2.3690917 0 2 0.3690917 2 0.828125 L 2 15.171875 C 2 15.630908 2.3690917 16 2.828125 16 L 13.171875 16 C 13.630908 16 14 15.630908 14 15.171875 L 14 0.828125 C 14 0.3690917 13.630908 1.025698e-17 13.171875 0 L 2.828125 0 z M 8 2.5 C 8.0158938 2.5 8.0463769 2.5088883 8.0898438 2.5273438 C 8.1333106 2.5457992 8.1905152 2.5728477 8.2578125 2.6074219 C 8.3924071 2.6765702 8.5698832 2.7768813 8.7773438 2.8964844 C 8.9848043 3.0160875 9.2222709 3.1552761 9.4726562 3.3066406 C 9.7230416 3.4580051 9.9866309 3.6207238 10.25 3.7851562 C 10.513369 3.9495887 10.775072 4.1165837 11.021484 4.2753906 C 11.267896 4.4341975 11.499705 4.5862152 11.699219 4.7207031 C 11.898732 4.855191 12.066779 4.9710245 12.189453 5.0625 C 12.25079 5.1082377 12.301377 5.1482079 12.337891 5.1796875 C 12.374404 5.2111671 12.39635 5.2351152 12.404297 5.25 C 12.412244 5.2648848 12.420781 5.2977212 12.427734 5.3476562 C 12.434688 5.3975913 12.441305 5.46461 12.447266 5.5449219 C 12.459186 5.7055456 12.468616 5.9216902 12.476562 6.1757812 C 12.484509 6.4298723 12.490167 6.7210786 12.494141 7.03125 C 12.498114 7.3414214 12.5 7.6711351 12.5 8 C 12.5 8.3288649 12.498114 8.6585786 12.494141 8.96875 C 12.490167 9.2789214 12.484509 9.5701277 12.476562 9.8242188 C 12.468616 10.07831 12.459186 10.294454 12.447266 10.455078 C 12.441305 10.53539 12.434688 10.602409 12.427734 10.652344 C 12.420781 10.702279 12.412244 10.735115 12.404297 10.75 C 12.39635 10.764885 12.374404 10.788833 12.337891 10.820312 C 12.301377 10.851792 12.25079 10.891762 12.189453 10.9375 C 12.066779 11.028975 11.898732 11.144809 11.699219 11.279297 C 11.499705 11.413785 11.267896 11.565802 11.021484 11.724609 C 10.775072 11.883416 10.513369 12.050411 10.25 12.214844 C 9.9866309 12.379276 9.7230416 12.541995 9.4726562 12.693359 C 9.2222709 12.844724 8.9848043 12.983913 8.7773438 13.103516 C 8.5698832 13.223119 8.3924071 13.32343 8.2578125 13.392578 C 8.1905152 13.427152 8.1333106 13.454201 8.0898438 13.472656 C 8.0463769 13.491112 8.0158938 13.5 8 13.5 C 7.9841062 13.5 7.9536231 13.491112 7.9101562 13.472656 C 7.8666894 13.454201 7.8094848 13.427152 7.7421875 13.392578 C 7.6075929 13.32343 7.4301168 13.223119 7.2226562 13.103516 C 7.0151957 12.983913 6.7777291 12.844724 6.5273438 12.693359 C 6.2769584 12.541995 6.0133691 12.379276 5.75 12.214844 C 5.4866309 12.050411 5.2249275 11.883416 4.9785156 11.724609 C 4.7321037 11.565802 4.5002948 11.413785 4.3007812 11.279297 C 4.1012677 11.144809 3.9332211 11.028975 3.8105469 10.9375 C 3.7492098 10.891762 3.6986227 10.851792 3.6621094 10.820312 C 3.625596 10.788833 3.60365 10.764885 3.5957031 10.75 C 3.5877562 10.735115 3.5792192 10.702279 3.5722656 10.652344 C 3.5653121 10.602409 3.5586946 10.53539 3.5527344 10.455078 C 3.540814 10.294454 3.5313844 10.07831 3.5234375 9.8242188 C 3.5154906 9.5701277 3.5098328 9.2789214 3.5058594 8.96875 C 3.5018859 8.6585786 3.5 8.3288649 3.5 8 C 3.5 7.6711351 3.5018859 7.3414214 3.5058594 7.03125 C 3.5098328 6.7210786 3.5154906 6.4298723 3.5234375 6.1757812 C 3.5313844 5.9216902 3.540814 5.7055456 3.5527344 5.5449219 C 3.5586946 5.46461 3.5653121 5.3975913 3.5722656 5.3476562 C 3.5792192 5.2977212 3.5877562 5.2648848 3.5957031 5.25 C 3.60365 5.2351152 3.625596 5.2111671 3.6621094 5.1796875 C 3.6986227 5.1482079 3.7492098 5.1082377 3.8105469 5.0625 C 3.9332211 4.9710245 4.1012677 4.855191 4.3007812 4.7207031 C 4.5002948 4.5862152 4.7321037 4.4341975 4.9785156 4.2753906 C 5.2249275 4.1165837 5.4866309 3.9495887 5.75 3.7851562 C 6.0133691 3.6207238 6.2769584 3.4580051 6.5273438 3.3066406 C 6.7777291 3.1552761 7.0151957 3.0160875 7.2226562 2.8964844 C 7.4301168 2.7768813 7.6075929 2.6765702 7.7421875 2.6074219 C 7.8094848 2.5728477 7.8666894 2.5457992 7.9101562 2.5273438 C 7.9536231 2.5088883 7.9841062 2.5 8 2.5 z " />
  <g
     id="g1451"
     transform="matrix(0.38846245,0,0,0.38846245,-10.243439,-4.0423355)"
     style="opacity:1;stroke-width:2.02851009;stroke-dasharray:none;fill:#2e3436;fill-opacity:1">
    <circle
       style="fill:#2e3436;fill-opacity:1;stroke:none;stroke-width:1.65419;stroke-dasharray:none;stroke-opacity:1"
       id="circle1442"
       cx="46.9632"
       cy="30.999998"
       r="6.8320017" />
  </g>
</svg>
